<svg id="btn-bg" xmlns="http://www.w3.org/2000/svg" xmlns:xlink="http://www.w3.org/1999/xlink" width="250.492" height="72.655" viewBox="0 0 250.492 72.655">
  <defs>
    <clipPath id="clip-path">
      <path id="Path_123" data-name="Path 123" d="M72.627.015V.022A72.634,72.634,0,0,0,0,72.655H177.859A72.634,72.634,0,0,0,250.492.022L72.611,0Z" fill="none"/>
    </clipPath>
  </defs>
  <g id="Group_195" data-name="Group 195" clip-path="url(#clip-path)">
    <path id="Path_121" data-name="Path 121" d="M250.492,72.655v0Z" fill="#40d2d4"/>
    <rect id="Rectangle_347" data-name="Rectangle 347" width="1.311" height="72.655" transform="translate(249.18 0)" fill="#40d2d4"/>
    <rect id="Rectangle_348" data-name="Rectangle 348" width="1.311" height="72.655" transform="translate(247.869 0)" fill="#40d1d3"/>
    <rect id="Rectangle_349" data-name="Rectangle 349" width="1.311" height="72.655" transform="translate(246.558 0)" fill="#3fd0d3"/>
    <rect id="Rectangle_350" data-name="Rectangle 350" width="1.311" height="72.655" transform="translate(245.246 0)" fill="#3fcfd2"/>
    <rect id="Rectangle_351" data-name="Rectangle 351" width="1.311" height="72.655" transform="translate(243.935 0)" fill="#3fced1"/>
    <rect id="Rectangle_352" data-name="Rectangle 352" width="1.311" height="72.655" transform="translate(242.623 0)" fill="#3ecdd1"/>
    <rect id="Rectangle_353" data-name="Rectangle 353" width="1.311" height="72.655" transform="translate(241.312 0)" fill="#3eccd0"/>
    <rect id="Rectangle_354" data-name="Rectangle 354" width="1.311" height="72.655" transform="translate(240 0)" fill="#3ecbcf"/>
    <rect id="Rectangle_355" data-name="Rectangle 355" width="1.311" height="72.655" transform="translate(238.689 0)" fill="#3dcacf"/>
    <rect id="Rectangle_356" data-name="Rectangle 356" width="1.311" height="72.655" transform="translate(237.377 0)" fill="#3dc9ce"/>
    <rect id="Rectangle_357" data-name="Rectangle 357" width="1.311" height="72.655" transform="translate(236.066 0)" fill="#3dc8cd"/>
    <rect id="Rectangle_358" data-name="Rectangle 358" width="1.311" height="72.655" transform="translate(234.754 0)" fill="#3cc7cd"/>
    <rect id="Rectangle_359" data-name="Rectangle 359" width="1.311" height="72.655" transform="translate(233.443 0)" fill="#3cc6cc"/>
    <rect id="Rectangle_360" data-name="Rectangle 360" width="1.311" height="72.655" transform="translate(232.131 0)" fill="#3cc5cc"/>
    <rect id="Rectangle_361" data-name="Rectangle 361" width="1.311" height="72.655" transform="translate(230.82 0)" fill="#3bc4cb"/>
    <rect id="Rectangle_362" data-name="Rectangle 362" width="1.311" height="72.655" transform="translate(229.508 0)" fill="#3bc3ca"/>
    <rect id="Rectangle_363" data-name="Rectangle 363" width="1.311" height="72.655" transform="translate(228.197 0)" fill="#3bc2ca"/>
    <rect id="Rectangle_364" data-name="Rectangle 364" width="1.311" height="72.655" transform="translate(226.885 0)" fill="#3ac1c9"/>
    <rect id="Rectangle_365" data-name="Rectangle 365" width="1.311" height="72.655" transform="translate(225.574 0)" fill="#3ac0c8"/>
    <rect id="Rectangle_366" data-name="Rectangle 366" width="1.311" height="72.655" transform="translate(224.262 0)" fill="#3abfc8"/>
    <rect id="Rectangle_367" data-name="Rectangle 367" width="1.311" height="72.655" transform="translate(222.951 0)" fill="#39bec7"/>
    <rect id="Rectangle_368" data-name="Rectangle 368" width="1.311" height="72.655" transform="translate(221.639 0)" fill="#39bdc6"/>
    <rect id="Rectangle_369" data-name="Rectangle 369" width="1.311" height="72.655" transform="translate(220.328 0)" fill="#39bcc6"/>
    <rect id="Rectangle_370" data-name="Rectangle 370" width="1.311" height="72.655" transform="translate(219.017 0)" fill="#38bbc5"/>
    <rect id="Rectangle_371" data-name="Rectangle 371" width="1.311" height="72.655" transform="translate(217.705 0)" fill="#38bac4"/>
    <rect id="Rectangle_372" data-name="Rectangle 372" width="1.311" height="72.655" transform="translate(216.394 0)" fill="#38b9c4"/>
    <rect id="Rectangle_373" data-name="Rectangle 373" width="1.311" height="72.655" transform="translate(215.082 0)" fill="#37b8c3"/>
    <rect id="Rectangle_374" data-name="Rectangle 374" width="1.311" height="72.655" transform="translate(213.771 0)" fill="#37b7c2"/>
    <rect id="Rectangle_375" data-name="Rectangle 375" width="1.311" height="72.655" transform="translate(212.459 0)" fill="#37b6c2"/>
    <rect id="Rectangle_376" data-name="Rectangle 376" width="1.311" height="72.655" transform="translate(211.148 0)" fill="#36b5c1"/>
    <rect id="Rectangle_377" data-name="Rectangle 377" width="1.311" height="72.655" transform="translate(209.836 0)" fill="#36b4c0"/>
    <rect id="Rectangle_378" data-name="Rectangle 378" width="1.311" height="72.655" transform="translate(208.525 0)" fill="#36b3c0"/>
    <rect id="Rectangle_379" data-name="Rectangle 379" width="1.311" height="72.655" transform="translate(207.213 0)" fill="#35b2bf"/>
    <rect id="Rectangle_380" data-name="Rectangle 380" width="1.311" height="72.655" transform="translate(205.902 0)" fill="#35b1be"/>
    <rect id="Rectangle_381" data-name="Rectangle 381" width="1.311" height="72.655" transform="translate(204.59 0)" fill="#35b0be"/>
    <rect id="Rectangle_382" data-name="Rectangle 382" width="1.311" height="72.655" transform="translate(203.279 0)" fill="#34afbd"/>
    <rect id="Rectangle_383" data-name="Rectangle 383" width="1.311" height="72.655" transform="translate(201.967 0)" fill="#34aebd"/>
    <rect id="Rectangle_384" data-name="Rectangle 384" width="1.311" height="72.655" transform="translate(200.656 0)" fill="#34adbc"/>
    <rect id="Rectangle_385" data-name="Rectangle 385" width="1.311" height="72.655" transform="translate(199.344 0)" fill="#33acbb"/>
    <rect id="Rectangle_386" data-name="Rectangle 386" width="1.311" height="72.655" transform="translate(198.033 0)" fill="#33abbb"/>
    <rect id="Rectangle_387" data-name="Rectangle 387" width="1.311" height="72.655" transform="translate(196.721 0)" fill="#33aaba"/>
    <rect id="Rectangle_388" data-name="Rectangle 388" width="1.311" height="72.655" transform="translate(195.41 0)" fill="#32a9b9"/>
    <rect id="Rectangle_389" data-name="Rectangle 389" width="1.311" height="72.655" transform="translate(194.098 0)" fill="#32a8b9"/>
    <rect id="Rectangle_390" data-name="Rectangle 390" width="1.311" height="72.655" transform="translate(192.787 0)" fill="#32a7b8"/>
    <rect id="Rectangle_391" data-name="Rectangle 391" width="1.311" height="72.655" transform="translate(191.476 0)" fill="#31a6b7"/>
    <rect id="Rectangle_392" data-name="Rectangle 392" width="1.311" height="72.655" transform="translate(190.164 0)" fill="#31a5b7"/>
    <rect id="Rectangle_393" data-name="Rectangle 393" width="1.311" height="72.655" transform="translate(188.853 0)" fill="#31a4b6"/>
    <rect id="Rectangle_394" data-name="Rectangle 394" width="1.311" height="72.655" transform="translate(187.541 0)" fill="#30a3b5"/>
    <rect id="Rectangle_395" data-name="Rectangle 395" width="1.311" height="72.655" transform="translate(186.23 0)" fill="#30a2b5"/>
    <rect id="Rectangle_396" data-name="Rectangle 396" width="1.311" height="72.655" transform="translate(184.918 0)" fill="#2fa1b4"/>
    <rect id="Rectangle_397" data-name="Rectangle 397" width="1.311" height="72.655" transform="translate(183.607 0)" fill="#2fa0b3"/>
    <rect id="Rectangle_398" data-name="Rectangle 398" width="1.311" height="72.655" transform="translate(182.295 0)" fill="#2f9fb3"/>
    <rect id="Rectangle_399" data-name="Rectangle 399" width="1.311" height="72.655" transform="translate(180.984 0)" fill="#2e9eb2"/>
    <rect id="Rectangle_400" data-name="Rectangle 400" width="1.311" height="72.655" transform="translate(179.672 0)" fill="#2e9db1"/>
    <rect id="Rectangle_401" data-name="Rectangle 401" width="1.311" height="72.655" transform="translate(178.361 0)" fill="#2e9cb1"/>
    <rect id="Rectangle_402" data-name="Rectangle 402" width="1.311" height="72.655" transform="translate(177.049 0)" fill="#2d9bb0"/>
    <rect id="Rectangle_403" data-name="Rectangle 403" width="1.311" height="72.655" transform="translate(175.738 0)" fill="#2d9aaf"/>
    <rect id="Rectangle_404" data-name="Rectangle 404" width="1.311" height="72.655" transform="translate(174.426 0)" fill="#2d99af"/>
    <rect id="Rectangle_405" data-name="Rectangle 405" width="1.311" height="72.655" transform="translate(173.115 0)" fill="#2c98ae"/>
    <rect id="Rectangle_406" data-name="Rectangle 406" width="1.311" height="72.655" transform="translate(171.803 0)" fill="#2c97ad"/>
    <rect id="Rectangle_407" data-name="Rectangle 407" width="1.311" height="72.655" transform="translate(170.492 0)" fill="#2c96ad"/>
    <rect id="Rectangle_408" data-name="Rectangle 408" width="1.311" height="72.655" transform="translate(169.18 0)" fill="#2b95ac"/>
    <rect id="Rectangle_409" data-name="Rectangle 409" width="1.311" height="72.655" transform="translate(167.869 0)" fill="#2b94ac"/>
    <rect id="Rectangle_410" data-name="Rectangle 410" width="1.311" height="72.655" transform="translate(166.557 0)" fill="#2b93ab"/>
    <rect id="Rectangle_411" data-name="Rectangle 411" width="1.311" height="72.655" transform="translate(165.246 0)" fill="#2a92aa"/>
    <rect id="Rectangle_412" data-name="Rectangle 412" width="1.311" height="72.655" transform="translate(163.935 0)" fill="#2a91aa"/>
    <rect id="Rectangle_413" data-name="Rectangle 413" width="1.311" height="72.655" transform="translate(162.623 0)" fill="#2a90a9"/>
    <rect id="Rectangle_414" data-name="Rectangle 414" width="1.311" height="72.655" transform="translate(161.312 0)" fill="#298fa8"/>
    <rect id="Rectangle_415" data-name="Rectangle 415" width="1.311" height="72.655" transform="translate(160 0)" fill="#298ea8"/>
    <rect id="Rectangle_416" data-name="Rectangle 416" width="1.311" height="72.655" transform="translate(158.689 0)" fill="#298da7"/>
    <rect id="Rectangle_417" data-name="Rectangle 417" width="1.311" height="72.655" transform="translate(157.377 0)" fill="#288ca6"/>
    <rect id="Rectangle_418" data-name="Rectangle 418" width="1.311" height="72.655" transform="translate(156.066 0)" fill="#288ba6"/>
    <rect id="Rectangle_419" data-name="Rectangle 419" width="1.311" height="72.655" transform="translate(154.754 0)" fill="#288aa5"/>
    <rect id="Rectangle_420" data-name="Rectangle 420" width="1.311" height="72.655" transform="translate(153.443 0)" fill="#2789a4"/>
    <rect id="Rectangle_421" data-name="Rectangle 421" width="1.311" height="72.655" transform="translate(152.131 0)" fill="#2788a4"/>
    <rect id="Rectangle_422" data-name="Rectangle 422" width="1.311" height="72.655" transform="translate(150.82 0)" fill="#2787a3"/>
    <rect id="Rectangle_423" data-name="Rectangle 423" width="1.311" height="72.655" transform="translate(149.508 0)" fill="#2686a2"/>
    <rect id="Rectangle_424" data-name="Rectangle 424" width="1.311" height="72.655" transform="translate(148.197 0)" fill="#2685a2"/>
    <rect id="Rectangle_425" data-name="Rectangle 425" width="1.311" height="72.655" transform="translate(146.885 0)" fill="#2684a1"/>
    <rect id="Rectangle_426" data-name="Rectangle 426" width="1.311" height="72.655" transform="translate(145.574 0)" fill="#2583a0"/>
    <rect id="Rectangle_427" data-name="Rectangle 427" width="1.311" height="72.655" transform="translate(144.262 0)" fill="#2582a0"/>
    <rect id="Rectangle_428" data-name="Rectangle 428" width="1.311" height="72.655" transform="translate(142.951 0)" fill="#25819f"/>
    <rect id="Rectangle_429" data-name="Rectangle 429" width="1.311" height="72.655" transform="translate(141.639 0)" fill="#24809e"/>
    <rect id="Rectangle_430" data-name="Rectangle 430" width="1.311" height="72.655" transform="translate(140.328 0)" fill="#247f9e"/>
    <rect id="Rectangle_431" data-name="Rectangle 431" width="1.311" height="72.655" transform="translate(139.016 0)" fill="#247e9d"/>
    <rect id="Rectangle_432" data-name="Rectangle 432" width="1.311" height="72.655" transform="translate(137.705 0)" fill="#237d9d"/>
    <rect id="Rectangle_433" data-name="Rectangle 433" width="1.311" height="72.655" transform="translate(136.394 0)" fill="#237c9c"/>
    <rect id="Rectangle_434" data-name="Rectangle 434" width="1.311" height="72.655" transform="translate(135.082 0)" fill="#237b9b"/>
    <rect id="Rectangle_435" data-name="Rectangle 435" width="1.311" height="72.655" transform="translate(133.771 0)" fill="#227a9b"/>
    <rect id="Rectangle_436" data-name="Rectangle 436" width="1.311" height="72.655" transform="translate(132.459 0)" fill="#22799a"/>
    <rect id="Rectangle_437" data-name="Rectangle 437" width="1.311" height="72.655" transform="translate(131.148 0)" fill="#227899"/>
    <rect id="Rectangle_438" data-name="Rectangle 438" width="1.311" height="72.655" transform="translate(129.836 0)" fill="#217799"/>
    <rect id="Rectangle_439" data-name="Rectangle 439" width="1.311" height="72.655" transform="translate(128.525 0)" fill="#217698"/>
    <rect id="Rectangle_440" data-name="Rectangle 440" width="1.311" height="72.655" transform="translate(127.213 0)" fill="#217597"/>
    <rect id="Rectangle_441" data-name="Rectangle 441" width="1.311" height="72.655" transform="translate(125.902 0)" fill="#207497"/>
    <rect id="Rectangle_442" data-name="Rectangle 442" width="1.311" height="72.655" transform="translate(124.59 0)" fill="#207396"/>
    <rect id="Rectangle_443" data-name="Rectangle 443" width="1.311" height="72.655" transform="translate(123.279 0)" fill="#207195"/>
    <rect id="Rectangle_444" data-name="Rectangle 444" width="1.311" height="72.655" transform="translate(121.967 0)" fill="#1f7095"/>
    <rect id="Rectangle_445" data-name="Rectangle 445" width="1.311" height="72.655" transform="translate(120.656 0)" fill="#1f6f94"/>
    <rect id="Rectangle_446" data-name="Rectangle 446" width="1.311" height="72.655" transform="translate(119.344 0)" fill="#1f6e93"/>
    <rect id="Rectangle_447" data-name="Rectangle 447" width="1.311" height="72.655" transform="translate(118.033 0)" fill="#1e6d93"/>
    <rect id="Rectangle_448" data-name="Rectangle 448" width="1.311" height="72.655" transform="translate(116.721 0)" fill="#1e6c92"/>
    <rect id="Rectangle_449" data-name="Rectangle 449" width="1.311" height="72.655" transform="translate(115.41 0)" fill="#1e6b91"/>
    <rect id="Rectangle_450" data-name="Rectangle 450" width="1.311" height="72.655" transform="translate(114.098 0)" fill="#1d6a91"/>
    <rect id="Rectangle_451" data-name="Rectangle 451" width="1.311" height="72.655" transform="translate(112.787 0)" fill="#1d6990"/>
    <rect id="Rectangle_452" data-name="Rectangle 452" width="1.311" height="72.655" transform="translate(111.475 0)" fill="#1d688f"/>
    <rect id="Rectangle_453" data-name="Rectangle 453" width="1.311" height="72.655" transform="translate(110.164 0)" fill="#1c678f"/>
    <rect id="Rectangle_454" data-name="Rectangle 454" width="1.311" height="72.655" transform="translate(108.853 0)" fill="#1c668e"/>
    <rect id="Rectangle_455" data-name="Rectangle 455" width="1.311" height="72.655" transform="translate(107.541 0)" fill="#1c658e"/>
    <rect id="Rectangle_456" data-name="Rectangle 456" width="1.311" height="72.655" transform="translate(106.23 0)" fill="#1b648d"/>
    <rect id="Rectangle_457" data-name="Rectangle 457" width="1.311" height="72.655" transform="translate(104.918 0)" fill="#1b638c"/>
    <rect id="Rectangle_458" data-name="Rectangle 458" width="1.311" height="72.655" transform="translate(103.607 0)" fill="#1b628c"/>
    <rect id="Rectangle_459" data-name="Rectangle 459" width="1.311" height="72.655" transform="translate(102.295 0)" fill="#1a618b"/>
    <rect id="Rectangle_460" data-name="Rectangle 460" width="1.311" height="72.655" transform="translate(100.984 0)" fill="#1a608a"/>
    <rect id="Rectangle_461" data-name="Rectangle 461" width="1.311" height="72.655" transform="translate(99.672 0)" fill="#1a5f8a"/>
    <rect id="Rectangle_462" data-name="Rectangle 462" width="1.311" height="72.655" transform="translate(98.361 0)" fill="#195e89"/>
    <rect id="Rectangle_463" data-name="Rectangle 463" width="1.311" height="72.655" transform="translate(97.049 0)" fill="#195d88"/>
    <rect id="Rectangle_464" data-name="Rectangle 464" width="1.311" height="72.655" transform="translate(95.738 0)" fill="#195c88"/>
    <rect id="Rectangle_465" data-name="Rectangle 465" width="1.311" height="72.655" transform="translate(94.426 0)" fill="#185b87"/>
    <rect id="Rectangle_466" data-name="Rectangle 466" width="1.311" height="72.655" transform="translate(93.115 0)" fill="#185a86"/>
    <rect id="Rectangle_467" data-name="Rectangle 467" width="1.311" height="72.655" transform="translate(91.803 0)" fill="#185986"/>
    <rect id="Rectangle_468" data-name="Rectangle 468" width="1.311" height="72.655" transform="translate(90.492 0)" fill="#175885"/>
    <rect id="Rectangle_469" data-name="Rectangle 469" width="1.311" height="72.655" transform="translate(89.18 0)" fill="#175784"/>
    <rect id="Rectangle_470" data-name="Rectangle 470" width="1.311" height="72.655" transform="translate(87.869 0)" fill="#175684"/>
    <rect id="Rectangle_471" data-name="Rectangle 471" width="1.311" height="72.655" transform="translate(86.557 0)" fill="#165583"/>
    <rect id="Rectangle_472" data-name="Rectangle 472" width="1.311" height="72.655" transform="translate(85.246 0)" fill="#165482"/>
    <rect id="Rectangle_473" data-name="Rectangle 473" width="1.311" height="72.655" transform="translate(83.934 0)" fill="#165382"/>
    <rect id="Rectangle_474" data-name="Rectangle 474" width="1.311" height="72.655" transform="translate(82.623 0)" fill="#155281"/>
    <rect id="Rectangle_475" data-name="Rectangle 475" width="1.311" height="72.655" transform="translate(81.312 0)" fill="#155180"/>
    <rect id="Rectangle_476" data-name="Rectangle 476" width="1.311" height="72.655" transform="translate(80 0)" fill="#155080"/>
    <rect id="Rectangle_477" data-name="Rectangle 477" width="1.311" height="72.655" transform="translate(78.689 0)" fill="#144f7f"/>
    <rect id="Rectangle_478" data-name="Rectangle 478" width="1.311" height="72.655" transform="translate(77.377 0)" fill="#144e7f"/>
    <rect id="Rectangle_479" data-name="Rectangle 479" width="1.311" height="72.655" transform="translate(76.066 0)" fill="#144d7e"/>
    <rect id="Rectangle_480" data-name="Rectangle 480" width="1.311" height="72.655" transform="translate(74.754 0)" fill="#134c7d"/>
    <rect id="Rectangle_481" data-name="Rectangle 481" width="1.311" height="72.655" transform="translate(73.443 0)" fill="#134b7d"/>
    <rect id="Rectangle_482" data-name="Rectangle 482" width="1.311" height="72.655" transform="translate(72.131 0)" fill="#134a7c"/>
    <rect id="Rectangle_483" data-name="Rectangle 483" width="1.311" height="72.655" transform="translate(70.82 0)" fill="#12497b"/>
    <rect id="Rectangle_484" data-name="Rectangle 484" width="1.311" height="72.655" transform="translate(69.508 0)" fill="#12487b"/>
    <rect id="Rectangle_485" data-name="Rectangle 485" width="1.311" height="72.655" transform="translate(68.197 0)" fill="#12477a"/>
    <rect id="Rectangle_486" data-name="Rectangle 486" width="1.311" height="72.655" transform="translate(66.885 0)" fill="#114679"/>
    <rect id="Rectangle_487" data-name="Rectangle 487" width="1.311" height="72.655" transform="translate(65.574 0)" fill="#114579"/>
    <rect id="Rectangle_488" data-name="Rectangle 488" width="1.311" height="72.655" transform="translate(64.262 0)" fill="#114478"/>
    <rect id="Rectangle_489" data-name="Rectangle 489" width="1.311" height="72.655" transform="translate(62.951 0)" fill="#104377"/>
    <rect id="Rectangle_490" data-name="Rectangle 490" width="1.311" height="72.655" transform="translate(61.639 0)" fill="#104277"/>
    <rect id="Rectangle_491" data-name="Rectangle 491" width="1.311" height="72.655" transform="translate(60.328 0)" fill="#0f4176"/>
    <rect id="Rectangle_492" data-name="Rectangle 492" width="1.311" height="72.655" transform="translate(59.016 0)" fill="#0f4075"/>
    <rect id="Rectangle_493" data-name="Rectangle 493" width="1.311" height="72.655" transform="translate(57.705 0)" fill="#0f3f75"/>
    <rect id="Rectangle_494" data-name="Rectangle 494" width="1.311" height="72.655" transform="translate(56.393 0)" fill="#0e3e74"/>
    <rect id="Rectangle_495" data-name="Rectangle 495" width="1.311" height="72.655" transform="translate(55.082 0)" fill="#0e3d73"/>
    <rect id="Rectangle_496" data-name="Rectangle 496" width="1.311" height="72.655" transform="translate(53.771 0)" fill="#0e3c73"/>
    <rect id="Rectangle_497" data-name="Rectangle 497" width="1.311" height="72.655" transform="translate(52.459 0)" fill="#0d3b72"/>
    <rect id="Rectangle_498" data-name="Rectangle 498" width="1.311" height="72.655" transform="translate(51.148 0)" fill="#0d3a71"/>
    <rect id="Rectangle_499" data-name="Rectangle 499" width="1.311" height="72.655" transform="translate(49.836 0)" fill="#0d3971"/>
    <rect id="Rectangle_500" data-name="Rectangle 500" width="1.311" height="72.655" transform="translate(48.525 0)" fill="#0c3870"/>
    <rect id="Rectangle_501" data-name="Rectangle 501" width="1.311" height="72.655" transform="translate(47.213 0)" fill="#0c376f"/>
    <rect id="Rectangle_502" data-name="Rectangle 502" width="1.311" height="72.655" transform="translate(45.902 0)" fill="#0c366f"/>
    <rect id="Rectangle_503" data-name="Rectangle 503" width="1.311" height="72.655" transform="translate(44.59 0)" fill="#0b356e"/>
    <rect id="Rectangle_504" data-name="Rectangle 504" width="1.311" height="72.655" transform="translate(43.279 0)" fill="#0b346e"/>
    <rect id="Rectangle_505" data-name="Rectangle 505" width="1.311" height="72.655" transform="translate(41.967 0)" fill="#0b336d"/>
    <rect id="Rectangle_506" data-name="Rectangle 506" width="1.311" height="72.655" transform="translate(40.656 0)" fill="#0a326c"/>
    <rect id="Rectangle_507" data-name="Rectangle 507" width="1.311" height="72.655" transform="translate(39.344 0)" fill="#0a316c"/>
    <rect id="Rectangle_508" data-name="Rectangle 508" width="1.311" height="72.655" transform="translate(38.033 0)" fill="#0a306b"/>
    <rect id="Rectangle_509" data-name="Rectangle 509" width="1.311" height="72.655" transform="translate(36.721 0)" fill="#092f6a"/>
    <rect id="Rectangle_510" data-name="Rectangle 510" width="1.311" height="72.655" transform="translate(35.41 0)" fill="#092e6a"/>
    <rect id="Rectangle_511" data-name="Rectangle 511" width="1.311" height="72.655" transform="translate(34.098 0)" fill="#092d69"/>
    <rect id="Rectangle_512" data-name="Rectangle 512" width="1.311" height="72.655" transform="translate(32.787 0)" fill="#082c68"/>
    <rect id="Rectangle_513" data-name="Rectangle 513" width="1.311" height="72.655" transform="translate(31.475 0)" fill="#082b68"/>
    <rect id="Rectangle_514" data-name="Rectangle 514" width="1.311" height="72.655" transform="translate(30.164 0)" fill="#082a67"/>
    <rect id="Rectangle_515" data-name="Rectangle 515" width="1.311" height="72.655" transform="translate(28.852 0)" fill="#072966"/>
    <rect id="Rectangle_516" data-name="Rectangle 516" width="1.311" height="72.655" transform="translate(27.541 0)" fill="#072866"/>
    <rect id="Rectangle_517" data-name="Rectangle 517" width="1.311" height="72.655" transform="translate(26.23 0)" fill="#072765"/>
    <rect id="Rectangle_518" data-name="Rectangle 518" width="1.311" height="72.655" transform="translate(24.918 0)" fill="#062664"/>
    <rect id="Rectangle_519" data-name="Rectangle 519" width="1.311" height="72.655" transform="translate(23.607 0)" fill="#062564"/>
    <rect id="Rectangle_520" data-name="Rectangle 520" width="1.311" height="72.655" transform="translate(22.295 0)" fill="#062463"/>
    <rect id="Rectangle_521" data-name="Rectangle 521" width="1.311" height="72.655" transform="translate(20.984 0)" fill="#052362"/>
    <rect id="Rectangle_522" data-name="Rectangle 522" width="1.311" height="72.655" transform="translate(19.672 0)" fill="#052262"/>
    <rect id="Rectangle_523" data-name="Rectangle 523" width="1.311" height="72.655" transform="translate(18.361 0)" fill="#052161"/>
    <rect id="Rectangle_524" data-name="Rectangle 524" width="1.311" height="72.655" transform="translate(17.049 0)" fill="#042060"/>
    <rect id="Rectangle_525" data-name="Rectangle 525" width="1.311" height="72.655" transform="translate(15.738 0)" fill="#041f60"/>
    <rect id="Rectangle_526" data-name="Rectangle 526" width="1.311" height="72.655" transform="translate(14.426 0)" fill="#041e5f"/>
    <rect id="Rectangle_527" data-name="Rectangle 527" width="1.311" height="72.655" transform="translate(13.115 0)" fill="#031d5f"/>
    <rect id="Rectangle_528" data-name="Rectangle 528" width="1.311" height="72.655" transform="translate(11.803 0)" fill="#031c5e"/>
    <rect id="Rectangle_529" data-name="Rectangle 529" width="1.311" height="72.655" transform="translate(10.492 0)" fill="#031b5d"/>
    <rect id="Rectangle_530" data-name="Rectangle 530" width="1.311" height="72.655" transform="translate(9.18 0)" fill="#021a5d"/>
    <rect id="Rectangle_531" data-name="Rectangle 531" width="1.311" height="72.655" transform="translate(7.869 0)" fill="#02195c"/>
    <rect id="Rectangle_532" data-name="Rectangle 532" width="1.311" height="72.655" transform="translate(6.557 0)" fill="#02185b"/>
    <rect id="Rectangle_533" data-name="Rectangle 533" width="1.311" height="72.655" transform="translate(5.246 0)" fill="#01175b"/>
    <rect id="Rectangle_534" data-name="Rectangle 534" width="1.311" height="72.655" transform="translate(3.934 0)" fill="#01165a"/>
    <rect id="Rectangle_535" data-name="Rectangle 535" width="1.311" height="72.655" transform="translate(2.623 0)" fill="#011559"/>
    <rect id="Rectangle_536" data-name="Rectangle 536" width="1.311" height="72.655" transform="translate(1.311 0)" fill="#001459"/>
    <rect id="Rectangle_537" data-name="Rectangle 537" width="1.311" height="72.655" transform="translate(0 0)" fill="#001358"/>
    <path id="Path_122" data-name="Path 122" d="M0,0V0Z" fill="#001358"/>
  </g>
</svg>
