<svg xmlns="http://www.w3.org/2000/svg" xmlns:xlink="http://www.w3.org/1999/xlink" width="44.432" height="44.441" viewBox="0 0 44.432 44.441">
  <defs>
    <clipPath id="clip-path">
      <rect id="Rectangle_341" data-name="Rectangle 341" width="44.432" height="44.441" fill="none"/>
    </clipPath>
  </defs>
  <g id="Group_179" data-name="Group 179" clip-path="url(#clip-path)">
    <g id="Group_178" data-name="Group 178" transform="translate(0 0)">
      <g id="Group_177" data-name="Group 177" clip-path="url(#clip-path)">
        <g id="Group_176" data-name="Group 176" transform="translate(0 0)" opacity="0.25">
          <g id="Group_175" data-name="Group 175">
            <g id="Group_174" data-name="Group 174" clip-path="url(#clip-path)">
              <path id="Path_117" data-name="Path 117" d="M.352,10.452a66.537,66.537,0,0,0-.327,6.726q-.065,5.908.034,11.813A41.568,41.568,0,0,0,.436,34.58c.823,5.373,4.432,8.838,9.9,9.507a59.6,59.6,0,0,0,6.569.328q6.139.065,12.28-.035A40.46,40.46,0,0,0,34.679,44a10.64,10.64,0,0,0,7.938-5.282A13.433,13.433,0,0,0,44.3,32.169c.1-3.2.168-14.845.1-17.313a40.585,40.585,0,0,0-.378-5.135,10.644,10.644,0,0,0-4.846-7.647A13.122,13.122,0,0,0,32.14.143Q24.993,0,17.842,0C15.58,0,13.311.09,11.05.234a11.912,11.912,0,0,0-5.2,1.508,10.708,10.708,0,0,0-5.5,8.71" transform="translate(0 0)" fill="#fff"/>
            </g>
          </g>
        </g>
        <path id="Path_118" data-name="Path 118" d="M35.68,56.039V39.432H32.334V33.888h3.329c0-1.535.013-3,0-4.462-.04-3.812,1.807-5.95,5.575-6.438.117-.015,4.471-.115,6.535-.115v5.785c-.733,0-1.432.021-2.129,0-2.718-.1-3.29.226-3.137,3.165.033.633,0,1.268,0,2.034h5.279A29.07,29.07,0,0,1,46.6,39.4c-1.1.029-2.209.013-3.313.016-.24,0-.48.022-.826.039V56.039Z" transform="translate(-17.845 -12.623)" fill="#fff"/>
      </g>
    </g>
  </g>
</svg>
