<svg xmlns="http://www.w3.org/2000/svg" xmlns:xlink="http://www.w3.org/1999/xlink" width="44.432" height="44.441" viewBox="0 0 44.432 44.441">
  <defs>
    <clipPath id="clip-path">
      <rect id="Rectangle_335" data-name="Rectangle 335" width="44.432" height="44.441" fill="none"/>
    </clipPath>
  </defs>
  <g id="Group_165" data-name="Group 165" clip-path="url(#clip-path)">
    <g id="Group_164" data-name="Group 164" transform="translate(0 0)">
      <g id="Group_163" data-name="Group 163" clip-path="url(#clip-path)">
        <g id="Group_162" data-name="Group 162" transform="translate(0 0)" opacity="0.25">
          <g id="Group_161" data-name="Group 161">
            <g id="Group_160" data-name="Group 160" clip-path="url(#clip-path)">
              <path id="Path_112" data-name="Path 112" d="M.352,10.452a66.537,66.537,0,0,0-.327,6.726q-.065,5.908.034,11.813A41.568,41.568,0,0,0,.436,34.58c.823,5.373,4.432,8.838,9.9,9.507a59.6,59.6,0,0,0,6.569.328q6.139.065,12.28-.035A40.46,40.46,0,0,0,34.679,44a10.64,10.64,0,0,0,7.938-5.282A13.433,13.433,0,0,0,44.3,32.169c.1-3.2.168-14.845.1-17.313a40.585,40.585,0,0,0-.378-5.135,10.644,10.644,0,0,0-4.846-7.647A13.122,13.122,0,0,0,32.14.143Q24.993,0,17.842,0C15.58,0,13.311.09,11.05.234a11.912,11.912,0,0,0-5.2,1.508,10.708,10.708,0,0,0-5.5,8.71" transform="translate(0 0)" fill="#fff"/>
            </g>
          </g>
        </g>
        <g id="Group_198" data-name="Group 198">
          <path id="Path_113" data-name="Path 113" d="M46.506,34.462a12.272,12.272,0,1,1-12-12.29,12.257,12.257,0,0,1,12,12.29m-4.343,0a7.938,7.938,0,1,0-8.007,7.924,7.941,7.941,0,0,0,8.007-7.924" transform="translate(-12.121 -12.235)" fill="#fff"/>
          <path id="Path_114" data-name="Path 114" d="M74.248,20.45a2.817,2.817,0,0,1-2.86-2.863,2.863,2.863,0,1,1,5.726.014,2.8,2.8,0,0,1-2.867,2.849" transform="translate(-39.398 -8.125)" fill="#fff"/>
        </g>
      </g>
    </g>
  </g>
</svg>
