<svg xmlns="http://www.w3.org/2000/svg" xmlns:xlink="http://www.w3.org/1999/xlink" width="44.432" height="44.441" viewBox="0 0 44.432 44.441">
  <defs>
    <clipPath id="clip-path">
      <rect id="Rectangle_329" data-name="Rectangle 329" width="44.432" height="44.441" fill="none"/>
    </clipPath>
  </defs>
  <g id="Group_151" data-name="Group 151" clip-path="url(#clip-path)">
    <g id="Group_150" data-name="Group 150" transform="translate(0 0)">
      <g id="Group_149" data-name="Group 149" clip-path="url(#clip-path)">
        <g id="Group_148" data-name="Group 148" transform="translate(0 0)" opacity="0.25">
          <g id="Group_147" data-name="Group 147">
            <g id="Group_146" data-name="Group 146" clip-path="url(#clip-path)">
              <path id="Path_108" data-name="Path 108" d="M.352,10.452a66.537,66.537,0,0,0-.327,6.726q-.065,5.908.034,11.813A41.568,41.568,0,0,0,.436,34.58c.823,5.373,4.432,8.838,9.9,9.507a59.6,59.6,0,0,0,6.569.328q6.139.065,12.28-.035A40.46,40.46,0,0,0,34.679,44a10.64,10.64,0,0,0,7.938-5.282A13.433,13.433,0,0,0,44.3,32.169c.1-3.2.168-14.845.1-17.313a40.585,40.585,0,0,0-.378-5.135,10.644,10.644,0,0,0-4.846-7.647A13.122,13.122,0,0,0,32.14.143Q24.993,0,17.842,0C15.58,0,13.311.09,11.05.234a11.912,11.912,0,0,0-5.2,1.508,10.708,10.708,0,0,0-5.5,8.71" transform="translate(0 0)" fill="#fff"/>
            </g>
          </g>
        </g>
        <path id="Path_109" data-name="Path 109" d="M38.987,29.832c1.255-6.283-1.192-11.544-7.807-11.589-4.732-.035-9.052,3.056-7.869,11.15.152,1.013-.341.887-1.093.717-.636-.134-1.273-.278-1.9-.412a1.227,1.227,0,0,0-.708.341c-.914.968.923,1.712,1.614,1.971.914.341,1.9.664,1.775,1.73a4.716,4.716,0,0,1-.358,1.255,8.8,8.8,0,0,1-5.324,4.643c-1.129.323-1.7.448.018,1.389a8.888,8.888,0,0,0,3,.842c.179,3.335,1.434,1.192,4.159,1.739a5.285,5.285,0,0,1,1.1.287c.7.3,1.408.905,2.214,1.372,2.438,1.407,4.634,1.5,7.009-.18,1.371-.968,2.689-1.927,5.127-1.622,1.712.215,1.6.744,2.187-1.667,2.151-.376,4.087-.8,3.979-1.98a8.934,8.934,0,0,1-6.095-4.473c-.592-.95-1.335-2.339.224-3,.4-.17.959-.269,1.587-.493a2.237,2.237,0,0,0,1.174-.8.968.968,0,0,0-.869-1.371c-1.264-.09-1.856.735-2.626.484a1.56,1.56,0,0,1-.538-.332Z" transform="translate(-8.965 -10.068)" fill="#fff"/>
      </g>
    </g>
  </g>
</svg>
