<svg xmlns="http://www.w3.org/2000/svg" xmlns:xlink="http://www.w3.org/1999/xlink" width="44.432" height="44.441" viewBox="0 0 44.432 44.441">
  <defs>
    <clipPath id="clip-path">
      <rect id="Rectangle_344" data-name="Rectangle 344" width="44.432" height="44.441" fill="none"/>
    </clipPath>
  </defs>
  <g id="Group_186" data-name="Group 186" clip-path="url(#clip-path)">
    <g id="Group_185" data-name="Group 185" transform="translate(0 0)">
      <g id="Group_184" data-name="Group 184" clip-path="url(#clip-path)">
        <g id="Group_183" data-name="Group 183" transform="translate(0 0)" opacity="0.25">
          <g id="Group_182" data-name="Group 182">
            <g id="Group_181" data-name="Group 181" clip-path="url(#clip-path)">
              <path id="Path_119" data-name="Path 119" d="M.352,10.452a66.537,66.537,0,0,0-.327,6.726q-.065,5.908.034,11.813A41.568,41.568,0,0,0,.436,34.58c.823,5.373,4.432,8.838,9.9,9.507a59.6,59.6,0,0,0,6.569.328q6.139.065,12.28-.035A40.46,40.46,0,0,0,34.679,44a10.64,10.64,0,0,0,7.938-5.282A13.433,13.433,0,0,0,44.3,32.169c.1-3.2.168-14.845.1-17.313a40.585,40.585,0,0,0-.378-5.135,10.644,10.644,0,0,0-4.846-7.647A13.122,13.122,0,0,0,32.14.143Q24.993,0,17.842,0C15.58,0,13.311.09,11.05.234a11.912,11.912,0,0,0-5.2,1.508,10.708,10.708,0,0,0-5.5,8.71" transform="translate(0 0)" fill="#fff"/>
            </g>
          </g>
        </g>
      </g>
    </g>
    <path id="Path_120" data-name="Path 120" d="M35.431,25.941V47.133l18.291-10.6Z" transform="translate(-19.554 -14.316)" fill="#fff"/>
  </g>
</svg>
