<svg xmlns="http://www.w3.org/2000/svg" xmlns:xlink="http://www.w3.org/1999/xlink" width="44.432" height="44.441" viewBox="0 0 44.432 44.441">
  <defs>
    <clipPath id="clip-path">
      <rect id="Rectangle_332" data-name="Rectangle 332" width="44.432" height="44.441" fill="none"/>
    </clipPath>
  </defs>
  <g id="Group_158" data-name="Group 158" clip-path="url(#clip-path)">
    <g id="Group_157" data-name="Group 157" transform="translate(0 0)">
      <g id="Group_156" data-name="Group 156" clip-path="url(#clip-path)">
        <g id="Group_155" data-name="Group 155" transform="translate(0 0)" opacity="0.25">
          <g id="Group_154" data-name="Group 154">
            <g id="Group_153" data-name="Group 153" clip-path="url(#clip-path)">
              <path id="Path_110" data-name="Path 110" d="M.352,10.452a66.537,66.537,0,0,0-.327,6.726q-.065,5.908.034,11.813A41.568,41.568,0,0,0,.436,34.58c.823,5.373,4.432,8.838,9.9,9.507a59.6,59.6,0,0,0,6.569.328q6.139.065,12.28-.035A40.46,40.46,0,0,0,34.679,44a10.64,10.64,0,0,0,7.938-5.282A13.433,13.433,0,0,0,44.3,32.169c.1-3.2.168-14.845.1-17.313a40.585,40.585,0,0,0-.378-5.135,10.644,10.644,0,0,0-4.846-7.647A13.122,13.122,0,0,0,32.14.143Q24.993,0,17.842,0C15.58,0,13.311.09,11.05.234a11.912,11.912,0,0,0-5.2,1.508,10.708,10.708,0,0,0-5.5,8.71" transform="translate(0 0)" fill="#fff"/>
            </g>
          </g>
        </g>
        <path id="Path_111" data-name="Path 111" d="M31.556,46.349H30.6c-.089-.011-.178-.024-.268-.033a8.753,8.753,0,0,1-7.871-8.345,8.357,8.357,0,0,1,.349-2.923,8.7,8.7,0,0,1,5.8-5.81,8.063,8.063,0,0,1,3.908-.29c.1.017.131.055.13.156q-.028,2.292-.048,4.584c0,.145,0,.29,0,.443l-.105-.019c-.317-.056-.632-.137-.952-.166a3.948,3.948,0,1,0,3.4,5.423A1.645,1.645,0,0,0,35.1,38.8c.042-.781.076-1.563.083-2.344.015-1.51.011-3.021.013-4.531q.005-5.316.009-10.632c0-.914.006-1.828.01-2.743,0-.039,0-.078.008-.125.06,0,.11,0,.16,0l.624-.024h3.767a8.6,8.6,0,0,0,.327,1.93,6.579,6.579,0,0,0,1.957,3.153,7.112,7.112,0,0,0,3.02,1.539c.553.139,1.123.21,1.684.311v4.7a12.763,12.763,0,0,1-2.66-.345,12,12,0,0,1-3.947-1.743c-.054-.036-.111-.068-.187-.114v.164q-.007,4.79-.015,9.58a8.786,8.786,0,0,1-7.667,8.713c-.242.034-.486.046-.73.068" transform="translate(-12.392 -10.152)" fill="#fff"/>
      </g>
    </g>
  </g>
</svg>
