<svg xmlns="http://www.w3.org/2000/svg" xmlns:xlink="http://www.w3.org/1999/xlink" width="44.432" height="44.441" viewBox="0 0 44.432 44.441">
  <defs>
    <clipPath id="clip-path">
      <rect id="Rectangle_338" data-name="Rectangle 338" width="44.432" height="44.441" fill="none"/>
    </clipPath>
  </defs>
  <g id="Group_172" data-name="Group 172" clip-path="url(#clip-path)">
    <g id="Group_171" data-name="Group 171" transform="translate(0 0)">
      <g id="Group_170" data-name="Group 170" clip-path="url(#clip-path)">
        <g id="Group_169" data-name="Group 169" transform="translate(0 0)" opacity="0.25">
          <g id="Group_168" data-name="Group 168">
            <g id="Group_167" data-name="Group 167" clip-path="url(#clip-path)">
              <path id="Path_115" data-name="Path 115" d="M.352,10.452a66.537,66.537,0,0,0-.327,6.726q-.065,5.908.034,11.813A41.568,41.568,0,0,0,.436,34.58c.823,5.373,4.432,8.838,9.9,9.507a59.6,59.6,0,0,0,6.569.328q6.139.065,12.28-.035A40.46,40.46,0,0,0,34.679,44a10.64,10.64,0,0,0,7.938-5.282A13.433,13.433,0,0,0,44.3,32.169c.1-3.2.168-14.845.1-17.313a40.585,40.585,0,0,0-.378-5.135,10.644,10.644,0,0,0-4.846-7.647A13.122,13.122,0,0,0,32.14.143Q24.993,0,17.842,0C15.58,0,13.311.09,11.05.234a11.912,11.912,0,0,0-5.2,1.508,10.708,10.708,0,0,0-5.5,8.71" transform="translate(0 0)" fill="#fff"/>
            </g>
          </g>
        </g>
        <path id="Path_116" data-name="Path 116" d="M28.593,42.579a5.4,5.4,0,0,1-3.524-1.519,5.173,5.173,0,0,1-1.354-2.179,5.136,5.136,0,0,0,2.309-.092,5.382,5.382,0,0,1-3-1.881,5.26,5.26,0,0,1-1.169-3.378,5.126,5.126,0,0,0,2.328.637,5.374,5.374,0,0,1-2.15-3.217,5.268,5.268,0,0,1,.575-3.824A15.108,15.108,0,0,0,33.5,32.662c-.038-.359-.094-.69-.1-1.023A5.172,5.172,0,0,1,34.846,27.8a5.041,5.041,0,0,1,3.044-1.583,5.2,5.2,0,0,1,4.553,1.513.217.217,0,0,0,.227.072,10.609,10.609,0,0,0,3.04-1.152l.181-.1a5.116,5.116,0,0,1-.872,1.645,5.913,5.913,0,0,1-1.362,1.248,10.058,10.058,0,0,0,2.941-.8c-.055.086-.084.135-.116.181a10.737,10.737,0,0,1-2.393,2.465.258.258,0,0,0-.117.245A15.585,15.585,0,0,1,39.45,42.916a14.087,14.087,0,0,1-7.092,3.852,15.655,15.655,0,0,1-5.874.159,14.714,14.714,0,0,1-5.014-1.788c-.179-.1-.354-.212-.53-.319a.664.664,0,0,1-.065-.059,10.592,10.592,0,0,0,7.719-2.182" transform="translate(-11.52 -14.433)" fill="#fff"/>
      </g>
    </g>
  </g>
</svg>
